<svg xmlns="http://www.w3.org/2000/svg" width="48.712" height="33.489" viewBox="0 0 48.712 33.489"><defs><style>.a{fill:#f44336;}.b{fill:#fafafa;}</style></defs><path class="a" d="M46.641,83.227c-1.321-2.35-2.755-2.783-5.675-2.947-2.917-.2-10.251-.28-16.6-.28s-13.7.082-16.617.277c-2.914.167-4.351.6-5.684,2.95C.7,85.574,0,89.618,0,96.736v.024c0,7.088.7,11.161,2.061,13.484,1.333,2.35,2.767,2.777,5.681,2.974,2.917.17,10.254.271,16.62.271s13.688-.1,16.608-.268c2.92-.2,4.354-.624,5.675-2.974,1.373-2.323,2.067-6.4,2.067-13.484v-.024C48.712,89.618,48.018,85.574,46.641,83.227Z" transform="translate(0 -80)"/><path class="b" d="M192,178.267V160l15.222,9.133Z" transform="translate(-173.733 -152.389)"/></svg>