<svg xmlns="http://www.w3.org/2000/svg" width="48.712" height="39.578" viewBox="0 0 48.712 39.578"><defs><style>.a{fill:#03a9f4;}</style></defs><path class="a" d="M48.712,52.685a20.821,20.821,0,0,1-5.754,1.577,9.93,9.93,0,0,0,4.393-5.52,19.957,19.957,0,0,1-6.333,2.417,9.986,9.986,0,0,0-17.274,6.829,10.283,10.283,0,0,0,.231,2.277A28.266,28.266,0,0,1,3.392,49.821,9.989,9.989,0,0,0,6.46,63.168a9.862,9.862,0,0,1-4.512-1.23v.11a10.032,10.032,0,0,0,8,9.812,9.967,9.967,0,0,1-2.618.329,8.83,8.83,0,0,1-1.891-.17,10.081,10.081,0,0,0,9.331,6.957A20.066,20.066,0,0,1,2.39,83.234,18.7,18.7,0,0,1,0,83.1a28.114,28.114,0,0,0,15.32,4.481c18.376,0,28.423-15.222,28.423-28.417,0-.441-.015-.868-.037-1.291A19.922,19.922,0,0,0,48.712,52.685Z" transform="translate(0 -48)"/></svg>