<svg xmlns="http://www.w3.org/2000/svg" width="27.307" height="22.187" viewBox="0 0 27.307 22.187"><defs><style>.a{fill:gray;}</style></defs><path class="a" d="M27.307,50.627a11.672,11.672,0,0,1-3.226.884,5.567,5.567,0,0,0,2.463-3.094,11.188,11.188,0,0,1-3.55,1.355A5.6,5.6,0,0,0,13.311,53.6a5.764,5.764,0,0,0,.13,1.277A15.846,15.846,0,0,1,1.9,49.021,5.6,5.6,0,0,0,3.622,56.5a5.529,5.529,0,0,1-2.529-.69v.061a5.624,5.624,0,0,0,4.485,5.5,5.588,5.588,0,0,1-1.468.184,4.95,4.95,0,0,1-1.06-.1,5.652,5.652,0,0,0,5.231,3.9A11.249,11.249,0,0,1,1.34,67.752,10.484,10.484,0,0,1,0,67.675a15.76,15.76,0,0,0,8.588,2.512,15.824,15.824,0,0,0,15.934-15.93c0-.247-.009-.486-.02-.724A11.168,11.168,0,0,0,27.307,50.627Z" transform="translate(0 -48)"/></svg>