<svg xmlns="http://www.w3.org/2000/svg" width="39.575" height="48.709" viewBox="0 0 39.575 48.709"><defs><style>.a{fill:#d32f2f;}</style></defs><path class="a" d="M68.454,0C55.1,0,48,8.555,48,17.883c0,4.326,2.417,9.721,6.287,11.432.588.265.907.152,1.038-.393.116-.414.624-2.408.871-3.349a.861.861,0,0,0-.207-.846A11.093,11.093,0,0,1,53.688,18c0-6.506,5.173-12.823,13.974-12.823,7.611,0,12.936,4.944,12.936,12.017,0,7.992-4.229,13.521-9.724,13.521-3.041,0-5.307-2.387-4.588-5.34.868-3.516,2.57-7.3,2.57-9.834,0-2.274-1.285-4.156-3.909-4.156-3.1,0-5.608,3.066-5.608,7.182a10.239,10.239,0,0,0,.926,4.381S57.2,35.316,56.632,37.627c-.962,3.912.131,10.248.225,10.793a.321.321,0,0,0,.585.149c.3-.4,4-5.678,5.042-9.5.378-1.391,1.927-7.033,1.927-7.033,1.02,1.842,3.964,3.385,7.1,3.385,9.328,0,16.069-8.2,16.069-18.373C87.546,7.3,79.2,0,68.454,0" transform="translate(-48.004)"/></svg>