<svg xmlns="http://www.w3.org/2000/svg" width="18.027" height="22.187" viewBox="0 0 18.027 22.187"><defs><style>.a{fill:gray;}</style></defs><path class="a" d="M57.319,0C51.238,0,48,3.9,48,8.146c0,1.971,1.1,4.428,2.864,5.207.268.121.413.069.473-.179.053-.189.284-1.1.4-1.525a.392.392,0,0,0-.094-.386A5.053,5.053,0,0,1,50.593,8.2c0-2.964,2.356-5.841,6.365-5.841,3.467,0,5.892,2.252,5.892,5.474,0,3.64-1.926,6.159-4.429,6.159a1.983,1.983,0,0,1-2.09-2.432c.4-1.6,1.17-3.324,1.17-4.479a1.72,1.72,0,0,0-1.781-1.893c-1.41,0-2.554,1.4-2.554,3.271a4.664,4.664,0,0,0,.422,2s-1.4,5.636-1.654,6.688a14.966,14.966,0,0,0,.1,4.916.146.146,0,0,0,.266.068A17.472,17.472,0,0,0,54.6,17.8c.172-.634.878-3.2.878-3.2a3.834,3.834,0,0,0,3.234,1.542c4.249,0,7.319-3.735,7.319-8.369C66.015,3.324,62.213,0,57.319,0Z" transform="translate(-48.004)"/></svg>