<svg xmlns="http://www.w3.org/2000/svg" width="49.407" height="48.925" viewBox="0 0 49.407 48.925"><defs><style>.a{fill:#1976d2;}</style></defs><g transform="translate(0.254 0.01)"><rect class="a" width="10.893" height="33.489" transform="translate(0.441 15.426)"/><path class="a" d="M185.342,160.393c-.116-.037-.225-.076-.347-.11-.146-.033-.292-.061-.441-.085a9.763,9.763,0,0,0-1.955-.2h0c-6.351,0-10.379,4.618-11.706,6.4V160H160v33.489h10.893V175.222s8.232-11.465,11.706-3.044v21.311h10.89v-22.6A10.861,10.861,0,0,0,185.342,160.393Z" transform="translate(-144.337 -144.574)"/><ellipse class="a" cx="5.5" cy="5" rx="5.5" ry="5" transform="translate(-0.254 -0.01)"/></g></svg>