<svg xmlns="http://www.w3.org/2000/svg" width="30.054" height="22.187" viewBox="0 0 30.054 22.187"><defs><style>.a{fill:gray;}</style></defs><path class="a" d="M28.776,82.138c-.815-1.557-1.7-1.844-3.5-1.952-1.8-.131-6.324-.186-10.245-.186s-8.454.054-10.252.184c-1.8.111-2.684.4-3.507,1.954C.432,83.693,0,86.372,0,91.088V91.1c0,4.7.432,7.394,1.272,8.933.823,1.557,1.707,1.84,3.505,1.971,1.8.113,6.326.18,10.254.18s8.445-.067,10.246-.177c1.8-.131,2.686-.414,3.5-1.971.847-1.539,1.275-4.238,1.275-8.933V91.09C30.054,86.372,29.625,83.693,28.776,82.138ZM11.27,97.145v-12.1l9.392,6.051Z" transform="translate(0 -80)"/></svg>