<svg xmlns="http://www.w3.org/2000/svg" width="48.712" height="48.712" viewBox="0 0 48.712 48.712"><defs><style>.a{fill:#4caf50;}.b{fill:#fafafa;}</style></defs><path class="a" d="M24.362,0H24.35A24.341,24.341,0,0,0,4.637,38.631L1.6,47.68l9.362-2.993A24.352,24.352,0,1,0,24.362,0Z"/><path class="b" d="M135.593,140.342c-.588,1.659-2.92,3.035-4.78,3.437-1.273.271-2.935.487-8.531-1.833-7.158-2.965-11.767-10.239-12.126-10.71-.344-.472-2.892-3.851-2.892-7.346a7.776,7.776,0,0,1,2.49-5.928,3.539,3.539,0,0,1,2.49-.874c.3,0,.572.015.816.027.715.03,1.075.073,1.547,1.2.588,1.416,2.018,4.911,2.189,5.27a1.45,1.45,0,0,1,.1,1.318,4.209,4.209,0,0,1-.789,1.117c-.359.414-.7.731-1.059,1.175-.329.387-.7.8-.286,1.516a21.618,21.618,0,0,0,3.952,4.911,17.906,17.906,0,0,0,5.711,3.522,1.54,1.54,0,0,0,1.717-.271,29.468,29.468,0,0,0,1.9-2.521,1.359,1.359,0,0,1,1.748-.53c.658.228,4.137,1.948,4.853,2.3s1.187.53,1.361.831A6.066,6.066,0,0,1,135.593,140.342Z" transform="translate(-97.059 -105.948)"/></svg>