<svg xmlns="http://www.w3.org/2000/svg" width="48.709" height="45.667" viewBox="0 0 48.709 45.667"><defs><style>.a{fill:#ffeb3b;}</style></defs><path class="a" d="M47.755,50.089c-6.512-1.072-9.447-7.742-9.566-8.025a.461.461,0,0,0-.027-.055,2.013,2.013,0,0,1-.228-1.656c.356-.834,1.72-1.267,2.621-1.553.262-.082.508-.161.712-.241a5.513,5.513,0,0,0,1.942-1.16,1.845,1.845,0,0,0,.591-1.327,2.089,2.089,0,0,0-1.565-1.811,2.829,2.829,0,0,0-1.059-.2,2.359,2.359,0,0,0-.986.2,5.536,5.536,0,0,1-2.031.578,1.864,1.864,0,0,1-.673-.146c.018-.3.037-.618.058-.941l.009-.14c.21-3.3.469-7.4-.621-9.834a13.228,13.228,0,0,0-2.981-4.265,12.464,12.464,0,0,0-3.565-2.35,14.087,14.087,0,0,0-5.562-1.175H24.7L23.865,16A14.14,14.14,0,0,0,18.3,17.172a12.4,12.4,0,0,0-3.553,2.347,13.271,13.271,0,0,0-2.968,4.256c-1.09,2.433-.831,6.533-.624,9.828v.006c.021.353.046.722.067,1.081a1.951,1.951,0,0,1-.8.149,5.282,5.282,0,0,1-2.171-.581,1.95,1.95,0,0,0-.825-.17,2.917,2.917,0,0,0-1.458.408,2.018,2.018,0,0,0-1.032,1.318,1.819,1.819,0,0,0,.694,1.708A5.987,5.987,0,0,0,7.443,38.56c.207.082.454.158.712.241.9.286,2.268.718,2.624,1.553a2.028,2.028,0,0,1-.231,1.656.431.431,0,0,0-.024.055A16.121,16.121,0,0,1,8.07,45.857,13.769,13.769,0,0,1,5.111,48.47,10.89,10.89,0,0,1,.955,50.086,1.137,1.137,0,0,0,0,51.274a1.442,1.442,0,0,0,.119.5v0a3.043,3.043,0,0,0,1.65,1.41,18.844,18.844,0,0,0,4.765,1.239,5.78,5.78,0,0,1,.292,1.047c.079.365.161.743.28,1.142a1.248,1.248,0,0,0,1.306.95,6.358,6.358,0,0,0,1.12-.155,12.741,12.741,0,0,1,2.554-.289,11.1,11.1,0,0,1,1.827.155,8.676,8.676,0,0,1,3.413,1.763c1.741,1.23,3.714,2.621,6.728,2.621q.123,0,.247-.009c.1.006.222.009.35.009,3.014,0,4.987-1.391,6.728-2.618l0,0a8.707,8.707,0,0,1,3.413-1.76,11.1,11.1,0,0,1,1.827-.155,12.8,12.8,0,0,1,2.554.271,6.172,6.172,0,0,0,1.12.137h.055a1.233,1.233,0,0,0,1.251-.935c.116-.393.2-.758.28-1.133a5.98,5.98,0,0,1,.289-1.041,18.975,18.975,0,0,0,4.765-1.239,3.055,3.055,0,0,0,1.647-1.407,1.447,1.447,0,0,0,.122-.5A1.133,1.133,0,0,0,47.755,50.089Z" transform="translate(0 -15.988)"/></svg>