<svg xmlns="http://www.w3.org/2000/svg" width="22.261" height="22.188" viewBox="0 0 22.261 22.188"><defs><style>.a{fill:#fff;}</style></defs><g transform="translate(0.145 6.983)"><rect class="a" width="4.946" height="15.204"/></g><g transform="translate(7.056 6.983)"><path class="a" d="M171.506,160.178c-.053-.017-.1-.035-.158-.05s-.133-.028-.2-.039a4.433,4.433,0,0,0-.887-.09,6.871,6.871,0,0,0-5.315,2.907V160H160v15.2h4.946v-8.293s3.738-5.205,5.315-1.382V175.2H175.2v-10.26A4.931,4.931,0,0,0,171.506,160.178Z" transform="translate(-160 -160)"/></g><g transform="translate(0 0)"><circle class="a" cx="2.589" cy="2.589" r="2.589"/></g></svg>