<svg xmlns="http://www.w3.org/2000/svg" xmlns:xlink="http://www.w3.org/1999/xlink" width="48.712" height="48.712" viewBox="0 0 48.712 48.712"><defs><style>.a{fill:url(#a);}.b{fill:url(#b);}.c{fill:url(#c);}</style><linearGradient id="a" x1="0.111" y1="0.914" x2="0.878" y2="0.077" gradientUnits="objectBoundingBox"><stop offset="0" stop-color="#ffc107"/><stop offset="0.128" stop-color="#fca212"/><stop offset="0.555" stop-color="#ed413e"/><stop offset="1" stop-color="#9d27af"/></linearGradient><linearGradient id="b" x1="1.054" x2="0.189" y2="0.889" gradientUnits="objectBoundingBox"><stop offset="0" stop-color="#a129a8"/><stop offset="0.448" stop-color="#e63f48"/><stop offset="1" stop-color="#fca113"/></linearGradient><linearGradient id="c" x1="1" x2="0" y2="1" gradientUnits="objectBoundingBox"><stop offset="0" stop-color="#9d27af"/><stop offset="0.465" stop-color="#ec593b"/><stop offset="1" stop-color="#fdb50b"/></linearGradient></defs><path class="a" d="M33.489,0H15.222A15.224,15.224,0,0,0,0,15.222V33.489A15.224,15.224,0,0,0,15.222,48.712H33.489A15.224,15.224,0,0,0,48.712,33.489V15.222A15.224,15.224,0,0,0,33.489,0ZM44.145,33.489A10.667,10.667,0,0,1,33.489,44.145H15.222A10.667,10.667,0,0,1,4.567,33.489V15.222A10.667,10.667,0,0,1,15.222,4.567H33.489A10.667,10.667,0,0,1,44.145,15.222Z"/><path class="b" d="M140.178,128a12.178,12.178,0,1,0,12.178,12.178A12.178,12.178,0,0,0,140.178,128Zm0,19.789a7.611,7.611,0,1,1,7.611-7.611A7.622,7.622,0,0,1,140.178,147.789Z" transform="translate(-115.822 -115.822)"/><ellipse class="c" cx="1.623" cy="1.623" rx="1.623" ry="1.623" transform="translate(35.824 9.642)"/></svg>