<svg xmlns="http://www.w3.org/2000/svg" width="22.927" height="22.187" viewBox="0 0 22.927 22.187"><defs><style>.a,.d{fill:gray;}.b{fill:none;}.c,.f{fill:#fff;}.c,.d{stroke:#fff;}.d{stroke-width:1.8px;}.e,.f{stroke:none;}</style></defs><path class="a" d="M15.254,0H6.934A6.934,6.934,0,0,0,0,6.933v8.32a6.934,6.934,0,0,0,6.934,6.933h8.32a6.934,6.934,0,0,0,6.934-6.933V6.933A6.934,6.934,0,0,0,15.254,0Zm.288,8.024c0,2.676,1.025,7.23-1.651,7.23-7.008,4.853-1.116,3.071-1.116.445l-2.41.268c0-2.676-6.157-2.09-3.481-2.09L6.35,8.47c2.676,0,6.738-4.461,6.738-1.785Z"/><g transform="translate(1.479)"><rect class="a" width="21.448" height="22.187" rx="9"/><g class="b" transform="translate(0 1.479)"><path class="e" d="M6.656,0h6.656a6.656,6.656,0,0,1,6.656,6.656v5.917a6.569,6.569,0,0,1-6.553,6.656H6.656A6.656,6.656,0,0,1,0,12.573V6.656A6.656,6.656,0,0,1,6.656,0Z"/><path class="f" d="M 6.656167030334473 1.799999237060547 C 3.978466987609863 1.799999237060547 1.799997329711914 3.978460311889648 1.799997329711914 6.656160354614258 L 1.799997329711914 12.57275009155273 C 1.799997329711914 15.25045013427734 3.978466987609863 17.42892074584961 6.656167030334473 17.42892074584961 L 13.41560745239258 17.42892074584961 C 14.69899749755859 17.42892074584961 15.89528656005859 16.9287109375 16.78408813476563 16.02043914794922 C 17.67683792114258 15.10812950134277 18.16849708557129 13.88372039794922 18.16849708557129 12.57275009155273 L 18.16849708557129 6.656160354614258 C 18.16849708557129 3.978460311889648 15.99002742767334 1.799999237060547 13.31232738494873 1.799999237060547 L 6.656167030334473 1.799999237060547 M 6.656167030334473 0 L 13.31232738494873 0 C 16.98842620849609 0 19.96849632263184 2.980070114135742 19.96849632263184 6.656160354614258 L 19.96849632263184 12.57275009155273 C 19.96849632263184 16.24884986877441 17.09170722961426 19.22891998291016 13.41560745239258 19.22891998291016 L 6.656167030334473 19.22891998291016 C 2.980066299438477 19.22891998291016 -1.9073486328125e-06 16.24884986877441 -1.9073486328125e-06 12.57275009155273 L -1.9073486328125e-06 6.656160354614258 C -1.9073486328125e-06 2.980070114135742 2.980066299438477 0 6.656167030334473 0 Z"/></g></g><g transform="translate(6.703 4.392)"><g transform="translate(8.875)"><ellipse class="c" cx="0.74" cy="0.74" rx="0.74" ry="0.74"/></g><g transform="translate(0 2.3)"><ellipse class="d" cx="4.397" cy="4.397" rx="4.397" ry="4.397"/></g></g></svg>