<svg xmlns="http://www.w3.org/2000/svg" width="48.712" height="48.712" viewBox="0 0 48.712 48.712"><defs><style>.a{fill:#1976d2;}.b{fill:#fafafa;}</style></defs><path class="a" d="M42.623,0H6.089A6.1,6.1,0,0,0,0,6.089V42.623a6.1,6.1,0,0,0,6.089,6.089H42.623a6.1,6.1,0,0,0,6.089-6.089V6.089A6.1,6.1,0,0,0,42.623,0Z"/><path class="b" d="M214.834,111.222h-7.611v-6.089c0-1.681,1.364-1.522,3.044-1.522h3.044V96h-6.089a9.133,9.133,0,0,0-9.133,9.133v6.089H192v7.611h6.089v16.745h9.133V118.834h4.567Z" transform="translate(-173.733 -86.867)"/></svg>